<svg xmlns="http://www.w3.org/2000/svg" viewBox="0 0 400 300" role="img" aria-hidden="true">
  <defs>
    <linearGradient id="sky" x1="0" y1="0" x2="0" y2="1">
      <stop offset="0%" stop-color="#f7f9fb"/>
      <stop offset="55%" stop-color="#e8f4fa"/>
      <stop offset="100%" stop-color="#dce8ee"/>
    </linearGradient>
    <linearGradient id="slope" x1="0" y1="0" x2="1" y2="1">
      <stop offset="0%" stop-color="#ffffff" stop-opacity="0.95"/>
      <stop offset="100%" stop-color="#e8f4fa" stop-opacity="0.7"/>
    </linearGradient>
    <linearGradient id="forest" x1="0" y1="0" x2="0" y2="1">
      <stop offset="0%" stop-color="#2d6b7a" stop-opacity="0.18"/>
      <stop offset="100%" stop-color="#2d6b7a" stop-opacity="0.06"/>
    </linearGradient>
    <filter id="soft" x="-20%" y="-20%" width="140%" height="140%">
      <feGaussianBlur stdDeviation="1.2"/>
    </filter>
  </defs>

  <rect width="400" height="300" rx="8" fill="url(#sky)"/>

  <!-- èn—ûu²ىَا¹b	 -->
  <ellipse cx="200" cy="72" rx="168" ry="58" fill="url(#forest)"/>
  <path d="M 48 118 Q 120 78 200 62 Q 280 48 352 96 L 352 130 L 48 130 Z" fill="url(#slope)" opacity="0.9"/>
  <path d="M 72 118 Q 145 88 210 76 Q 268 68 328 102" fill="none" stroke="#ffffff" stroke-width="2.5" opacity="0.75"/>
  <path d="M 96 112 Q 168 86 228 74 Q 286 66 312 88" fill="none" stroke="#5eb8e8" stroke-width="1.5" opacity="0.35"/>

  <!-- Wèns0إûSnإ¹b	 -->
  <path d="M 0 228 Q 100 214 200 220 Q 300 226 400 212 L 400 300 L 0 300 Z" fill="#ffffff" opacity="0.55"/>

  <!-- Sï/ -->
  <path d="M 168 252 L 188 198 L 208 148 L 222 108" fill="none" stroke="#c5d5de" stroke-width="22" stroke-linecap="round" opacity="0.55"/>
  <path d="M 168 252 L 188 198 L 208 148 L 222 108" fill="none" stroke="#94a8b4" stroke-width="1.5" stroke-dasharray="5 4" opacity="0.35"/>

  <!-- ëüبإ’²ىَا	 -->
  <path d="M 168 252 C 176 220, 196 168, 222 108" fill="none" stroke="#5eb8e8" stroke-width="3.5" stroke-linecap="round" stroke-dasharray="7 5"/>

  <!-- @پB“شë -->
  <rect x="178" y="168" width="88" height="24" rx="12" fill="#5eb8e8"/>
  <text x="222" y="184" text-anchor="middle" font-family="'Noto Sans JP', 'Hiragino Sans', sans-serif" font-size="11" font-weight="700" fill="#1c2434">ت 11</text>

  <!-- âp -->
  <g transform="translate(348, 36)">
    <path d="M0 -12 L3.5 0 L0 -3.5 L-3.5 0 Z" fill="#64748b"/>
    <text x="0" y="10" text-anchor="middle" font-family="'Noto Sans JP', sans-serif" font-size="9" font-weight="600" fill="#64748b"></text>
  </g>

  <!-- ²ىَا -->
  <circle cx="222" cy="108" r="12" fill="#5eb8e8" stroke="#141a26" stroke-width="1.5"/>
  <circle cx="222" cy="108" r="4.5" fill="#ffffff"/>
  <text x="222" y="86" text-anchor="middle" font-family="'Noto Sans JP', 'Hiragino Sans', sans-serif" font-size="11" font-weight="700" fill="#141a26">8:¶¹­ü4</text>

  <!-- إûSnإ -->
  <circle cx="168" cy="252" r="10" fill="#2d6b7a"/>
  <circle cx="168" cy="252" r="4" fill="#ffffff"/>
  <text x="168" y="274" text-anchor="middle" font-family="'Noto Sans JP', 'Hiragino Sans', sans-serif" font-size="9.5" font-weight="600" fill="#141a26">8AŒ0إ</text>
  <text x="168" y="286" text-anchor="middle" font-family="'Noto Sans JP', 'Hiragino Sans', sans-serif" font-size="8.5" font-weight="500" fill="#64748b">SnإWanx</text>

  <!-- °yع¢¤³َ!e	 -->
  <g transform="translate(132, 238)">
    <rect x="0" y="4" width="22" height="10" rx="3" fill="#0b5f8c" opacity="0.85"/>
    <rect x="3" y="7" width="16" height="4" rx="1" fill="#ffffff" opacity="0.9"/>
    <text x="11" y="0" text-anchor="middle" font-family="'Noto Sans JP', sans-serif" font-size="7" font-weight="700" fill="#0b5f8c">°yع</text>
  </g>
</svg>
