<svg xmlns="http://www.w3.org/2000/svg" viewBox="0 0 1024 1024" role="img" aria-labelledby="title desc">
  <title id="title">'öđ˛ěóÇŢĂ×Ěo</title>
  <desc id="desc">'öđn„UWDśb2,nęŐČ‰Oa“O“]Šłüą’hţW_‚eó</desc>
  <rect width="1024" height="1024" fill="#e8f4fb"/>
  <path d="M0 240 L120 210 L240 226 L348 180 L480 228 L616 186 L774 240 L914 198 L1024 222 L1024 1024 L0 1024 Z" fill="#aac9db"/>
  <path d="M0 410 C188 330 392 346 558 390 C748 440 886 410 1024 360 L1024 1024 L0 1024 Z" fill="#f5fbfe"/>
  <path d="M0 636 C212 524 432 530 618 578 C790 622 920 608 1024 578 L1024 1024 L0 1024 Z" fill="#ffffff"/>
  <path d="M530 320 C566 420 602 532 646 642" fill="none" stroke="#d62839" stroke-width="22" stroke-linecap="round"/>
  <path d="M650 332 C688 440 726 542 768 646" fill="none" stroke="#2fa84a" stroke-width="22" stroke-linecap="round"/>
  <path d="M488 326 C450 430 418 536 376 646" fill="none" stroke="#d62839" stroke-width="22" stroke-linecap="round"/>
  <path d="M796 626 C844 654 896 692 944 742" fill="none" stroke="#64748b" stroke-width="24" stroke-linecap="round"/>
  <path d="M418 696 L548 520" stroke="#111827" stroke-width="8" stroke-linecap="round"/>
  <path d="M566 696 L676 524" stroke="#111827" stroke-width="8" stroke-linecap="round"/>
  <path d="M744 680 L768 604" stroke="#111827" stroke-width="8" stroke-linecap="round"/>
  <circle cx="548" cy="520" r="14" fill="#111827"/>
  <circle cx="676" cy="524" r="14" fill="#111827"/>
  <circle cx="768" cy="604" r="14" fill="#111827"/>
  <circle cx="418" cy="696" r="14" fill="#111827"/>
  <circle cx="566" cy="696" r="14" fill="#111827"/>
  <circle cx="744" cy="680" r="14" fill="#111827"/>
  <text x="72" y="114" font-family="Noto Sans JP, sans-serif" font-size="42" font-weight="700" fill="#18384d">KIRIGAMINE MAP</text>
  <text x="72" y="162" font-family="Noto Sans JP, sans-serif" font-size="20" fill="#36596f">Beginner-friendly layout with separate sled zone</text>
</svg>
