<svg xmlns="http://www.w3.org/2000/svg" viewBox="0 0 1600 1100" role="img" aria-labelledby="title desc">
  <title id="title">
Ď*)É</title>
  <desc id="desc">Ď*Vh
Ď*)É’¤áü¸W_'öđ(¤éąČ</desc>
  <rect width="1600" height="1100" fill="#eef7fb"/>
  <circle cx="1240" cy="172" r="56" fill="#fff2bf"/>
  <ellipse cx="1110" cy="786" rx="362" ry="116" fill="#a7d0e6"/>
  <path d="M0 582 C206 486 368 484 532 520 C746 566 934 536 1122 470 C1298 408 1440 402 1600 458 L1600 1100 L0 1100 Z" fill="#fdfefe"/>
  <rect x="242" y="638" width="306" height="190" rx="24" fill="#ab8362"/>
  <rect x="286" y="606" width="220" height="52" rx="12" fill="#cfa27c"/>
  <rect x="334" y="668" width="122" height="86" rx="18" fill="#e8f1f7"/>
  <rect x="478" y="668" width="38" height="86" rx="12" fill="#6d513f"/>
  <ellipse cx="460" cy="870" rx="190" ry="78" fill="#7fc3dd"/>
  <path d="M332 852 C366 824 404 812 444 812 C514 812 580 850 612 900" fill="none" stroke="#cdebf6" stroke-width="18" stroke-linecap="round"/>
  <path d="M392 738 C388 688 402 658 436 628" fill="none" stroke="#ffffff" stroke-width="14" stroke-linecap="round"/>
  <path d="M450 730 C446 670 472 626 518 588" fill="none" stroke="#ffffff" stroke-width="14" stroke-linecap="round"/>
  <path d="M508 742 C504 686 532 646 574 612" fill="none" stroke="#ffffff" stroke-width="14" stroke-linecap="round"/>
  <text x="110" y="150" font-family="Noto Sans JP, sans-serif" font-size="50" font-weight="700" fill="#1c4458">
Ď*)É</text>
  <text x="110" y="210" font-family="Noto Sans JP, sans-serif" font-size="24" fill="#426173">˛ěóÇ0ŠkVTnog·H’{iO</text>
</svg>
