<svg xmlns="http://www.w3.org/2000/svg" viewBox="0 0 1200 1500" role="img" aria-labelledby="title desc">
  <title id="title">Ō*įŽŠ</title>
  <desc id="desc">Ō*VTnŖčhōünżŖíhĢW_'Ųū(§ťĻ»</desc>
  <rect width="1200" height="1500" fill="#fcf6ef"/>
  <circle cx="932" cy="250" r="220" fill="#d8edf9"/>
  <ellipse cx="932" cy="308" rx="286" ry="112" fill="#b7d7ea"/>
  <rect x="180" y="790" width="840" height="450" rx="36" fill="#ffffff"/>
  <ellipse cx="420" cy="984" rx="184" ry="112" fill="#eef2f5"/>
  <ellipse cx="420" cy="984" rx="150" ry="88" fill="#f5fbff"/>
  <path d="M344 954 C378 902 446 900 494 940 C530 970 534 1030 480 1062 C416 1100 330 1052 344 954 Z" fill="#a67c52"/>
  <path d="M734 932 C804 866 900 868 966 930 C1002 964 1010 1038 954 1078 C876 1132 756 1100 726 1020 C716 992 718 956 734 932 Z" fill="#6f4b2e"/>
  <rect x="268" y="620" width="224" height="48" rx="24" fill="#dfc09a"/>
  <rect x="642" y="636" width="270" height="44" rx="22" fill="#ccb38f"/>
  <text x="108" y="150" font-family="Noto Sans JP, sans-serif" font-size="48" font-weight="700" fill="#5a4428">Ō*VTnT{FsToď</text>
  <text x="108" y="206" font-family="Noto Sans JP, sans-serif" font-size="24" fill="#7a6141">FjN]p0RÍJsnŗĀí0ŖnŖgtHč</text>
</svg>
