<svg xmlns="http://www.w3.org/2000/svg" viewBox="0 0 1600 900" role="img" aria-labelledby="title desc">
  <title id="title">'öđą­ü4Ňüíü</title>
  <desc id="desc">'öđŘźnj`‰Kjśbh`onq&ŐˇßęüQn‹Dęor</desc>
  <defs>
    <linearGradient id="sky" x1="0" x2="0" y1="0" y2="1">
      <stop offset="0%" stop-color="#7fc8ff"/>
      <stop offset="60%" stop-color="#dff4ff"/>
      <stop offset="100%" stop-color="#f7fbff"/>
    </linearGradient>
    <linearGradient id="snow" x1="0" x2="1" y1="0" y2="1">
      <stop offset="0%" stop-color="#fdfefe"/>
      <stop offset="100%" stop-color="#dfeff8"/>
    </linearGradient>
  </defs>
  <rect width="1600" height="900" fill="url(#sky)"/>
  <circle cx="1260" cy="126" r="52" fill="#fff7cc"/>
  <path d="M0 370 L180 310 L300 342 L445 250 L610 334 L720 270 L890 352 L1030 260 L1180 330 L1330 240 L1480 328 L1600 286 L1600 900 L0 900 Z" fill="#9ec0d8"/>
  <path d="M0 468 C230 378 430 420 655 372 C905 318 1150 432 1600 332 L1600 900 L0 900 Z" fill="#eaf5fb"/>
  <path d="M0 566 C180 518 340 496 540 522 C760 552 925 462 1138 504 C1312 540 1445 518 1600 480 L1600 900 L0 900 Z" fill="url(#snow)"/>
  <path d="M110 670 C300 590 425 580 600 615 C805 656 1002 596 1185 624 C1340 648 1475 632 1600 606" fill="none" stroke="#cfe1ec" stroke-width="18" stroke-linecap="round"/>
  <path d="M790 520 C860 560 910 620 960 690" fill="none" stroke="#8fd1e7" stroke-width="20" stroke-linecap="round"/>
  <path d="M916 508 C965 560 1010 612 1050 664" fill="none" stroke="#8fd1e7" stroke-width="20" stroke-linecap="round"/>
  <path d="M1080 640 C1138 654 1208 682 1260 730" fill="none" stroke="#b6d3df" stroke-width="24" stroke-linecap="round"/>
  <rect x="1125" y="616" width="36" height="110" rx="18" fill="#647b8f"/>
  <rect x="1172" y="594" width="36" height="136" rx="18" fill="#647b8f"/>
  <rect x="1220" y="572" width="36" height="160" rx="18" fill="#647b8f"/>
  <path d="M80 716 C186 646 278 618 388 638 C520 662 648 748 782 730 C920 712 998 604 1128 590 C1230 578 1360 640 1510 730" fill="none" stroke="#ffffff" stroke-width="26" stroke-linecap="round"/>
  <g transform="translate(218 636)">
    <circle cx="0" cy="0" r="22" fill="#ef6c57"/>
    <circle cx="44" cy="8" r="24" fill="#4da6d8"/>
    <rect x="-14" y="18" width="24" height="44" rx="12" fill="#ef6c57"/>
    <rect x="29" y="28" width="28" height="44" rx="14" fill="#4da6d8"/>
  </g>
  <text x="120" y="132" font-family="Noto Sans JP, sans-serif" font-size="54" font-weight="700" fill="#16354a">KIRIGAMINE</text>
  <text x="120" y="192" font-family="Noto Sans JP, sans-serif" font-size="26" fill="#30556d">Family entry slopes with 360° plateau views</text>
</svg>
