<svg xmlns="http://www.w3.org/2000/svg" viewBox="0 0 1600 1100" width="1600" height="1100" aria-label="Kirigamine kids park and Rakuchin-kun">
  <rect width="1600" height="1100" fill="#eff8fd"/>
  <path d="M0 300 C220 236 372 258 538 226 C716 192 844 250 1020 218 C1204 184 1378 230 1600 170 L1600 1100 L0 1100 Z" fill="#b7d7e6"/>
  <path d="M0 548 C238 436 494 456 686 494 C888 534 1044 510 1600 374 L1600 1100 L0 1100 Z" fill="#ffffff"/>
  <path d="M810 492 L1052 682" stroke="#86cae2" stroke-width="34" stroke-linecap="round"/>
  <path d="M786 518 L1028 708" stroke="#4d6373" stroke-width="12" stroke-linecap="round" stroke-dasharray="8 16"/>
  <rect x="756" y="474" width="54" height="92" rx="18" fill="#667b8e"/>
  <rect x="1034" y="668" width="54" height="92" rx="18" fill="#667b8e"/>
  <path d="M1160 720 C1220 666 1284 652 1360 676 C1422 696 1474 740 1524 800" fill="none" stroke="#b5d3df" stroke-width="28" stroke-linecap="round"/>
  <circle cx="1218" cy="722" r="34" fill="#f6c94f"/>
  <circle cx="1322" cy="690" r="30" fill="#ef6c57"/>
  <circle cx="1428" cy="746" r="32" fill="#4da6d8"/>
  <g transform="translate(338 728)">
    <circle cx="0" cy="0" r="26" fill="#ef6c57"/>
    <circle cx="72" cy="-12" r="26" fill="#4da6d8"/>
    <rect x="-16" y="24" width="28" height="66" rx="14" fill="#ef6c57"/>
    <rect x="56" y="14" width="30" height="76" rx="15" fill="#4da6d8"/>
    <path d="M18 90 L-6 138" stroke="#ef6c57" stroke-width="12" stroke-linecap="round"/>
    <path d="M72 90 L98 138" stroke="#4da6d8" stroke-width="12" stroke-linecap="round"/>
  </g>
  <text x="98" y="138" font-family="Arial, sans-serif" font-size="50" font-weight="700" fill="#173b50">KIDS PARK and RAKUCHIN-KUN</text>
  <text x="98" y="198" font-family="Arial, sans-serif" font-size="24" fill="#335b71">Separated sled zone and moving walkway</text>
</svg>
