<svg xmlns="http://www.w3.org/2000/svg" viewBox="0 0 1200 1500" width="1200" height="1500" aria-label="Kirigamine panorama plateau">
  <defs>
    <linearGradient id="g1" x1="0" x2="0" y1="0" y2="1">
      <stop offset="0%" stop-color="#73bfff"/>
      <stop offset="55%" stop-color="#d8f1ff"/>
      <stop offset="100%" stop-color="#ffffff"/>
    </linearGradient>
  </defs>
  <rect width="1200" height="1500" fill="url(#g1)"/>
  <path d="M0 520 L122 474 L248 506 L366 438 L518 520 L660 448 L804 534 L944 446 L1088 520 L1200 476 L1200 1500 L0 1500 Z" fill="#a9c8d9"/>
  <path d="M0 690 C190 602 404 606 566 638 C716 668 868 644 1200 568 L1200 1500 L0 1500 Z" fill="#eef7fb"/>
  <path d="M0 922 C260 816 502 820 704 864 C878 902 1018 884 1200 826 L1200 1500 L0 1500 Z" fill="#ffffff"/>
  <path d="M118 1128 C312 1018 462 994 610 1022 C732 1044 838 1112 960 1122" fill="none" stroke="#d5e7f0" stroke-width="22" stroke-linecap="round"/>
  <path d="M760 920 C826 970 884 1048 938 1138" fill="none" stroke="#83cbe3" stroke-width="18" stroke-linecap="round"/>
  <path d="M856 906 C910 966 960 1030 1002 1092" fill="none" stroke="#83cbe3" stroke-width="18" stroke-linecap="round"/>
  <path d="M980 1116 C1030 1132 1080 1166 1128 1212" fill="none" stroke="#b8d6e4" stroke-width="24" stroke-linecap="round"/>
  <g transform="translate(274 1118)">
    <rect x="0" y="44" width="112" height="28" rx="14" fill="#ef6c57"/>
    <rect x="20" y="12" width="18" height="34" rx="9" fill="#647b8f"/>
    <rect x="72" y="12" width="18" height="34" rx="9" fill="#647b8f"/>
  </g>
  <text x="90" y="164" font-family="Arial, sans-serif" font-size="48" font-weight="700" fill="#16354a">KIRIGAMINE PLATEAU</text>
  <text x="90" y="222" font-family="Arial, sans-serif" font-size="24" fill="#32596d">Gentle slopes and wide mountain views</text>
</svg>
